PathFileType	4	(X/Y/Z)	C:\Users\Basilio\Documents\Thesis Gigler\squatting_fais\c3dfiles\040\SLS_pre_back1\markers_experimental.trc
DataRate	CameraRate	NumFrames	NumMarkers	Units	OrigDataRate	OrigDataStartFrame	OrigNumFrames
200.000000	200.000000	4	64	mm	200.000000	536	1073
Frame#	Time	FHD			LBHD			RBHD			C7			T10			CLAV			LSHO			LUUPA			LMUPA			LDUPA			LLEP			LMEP			LRAD			LUL			LRFIN			RSHO			RUPA1			RMUPA			RDUPA			RLEP			RMEP			RRAD			RUL			RUFIN			LASI			RASI			USACR			LSACR			RSACR			LTHI1			LTHI2			LTHI3			LTHI4			LLFC			LMFC			LTIB1			LTIB2			LTIB3			LTIB4			LLMAL			LMMAL			LHEE			LMT1			LMT2			LMT5			RTHI			RTHI2			RTHI3			RTHI4			RLFC			RMFC			RTIB1			RTIB2			RTIB3			RTIB4			RLMAL			RMMAL			RHEE			RMT1			RMT2			RMT5			*61			*62			*63			
		X1	Y1	Z1	X2	Y2	Z2	X3	Y3	Z3	X4	Y4	Z4	X5	Y5	Z5	X6	Y6	Z6	X7	Y7	Z7	X8	Y8	Z8	X9	Y9	Z9	X10	Y10	Z10	X11	Y11	Z11	X12	Y12	Z12	X13	Y13	Z13	X14	Y14	Z14	X15	Y15	Z15	X16	Y16	Z16	X17	Y17	Z17	X18	Y18	Z18	X19	Y19	Z19	X20	Y20	Z20	X21	Y21	Z21	X22	Y22	Z22	X23	Y23	Z23	X24	Y24	Z24	X25	Y25	Z25	X26	Y26	Z26	X27	Y27	Z27	X28	Y28	Z28	X29	Y29	Z29	X30	Y30	Z30	X31	Y31	Z31	X32	Y32	Z32	X33	Y33	Z33	X34	Y34	Z34	X35	Y35	Z35	X36	Y36	Z36	X37	Y37	Z37	X38	Y38	Z38	X39	Y39	Z39	X40	Y40	Z40	X41	Y41	Z41	X42	Y42	Z42	X43	Y43	Z43	X44	Y44	Z44	X45	Y45	Z45	X46	Y46	Z46	X47	Y47	Z47	X48	Y48	Z48	X49	Y49	Z49	X50	Y50	Z50	X51	Y51	Z51	X52	Y52	Z52	X53	Y53	Z53	X54	Y54	Z54	X55	Y55	Z55	X56	Y56	Z56	X57	Y57	Z57	X58	Y58	Z58	X59	Y59	Z59	X60	Y60	Z60	X61	Y61	Z61	X62	Y62	Z62	X63	Y63	Z63	X64	Y64	Z64	

537	2.68	73.30931854248048	1349.60791015625	-1239.41845703125	-52.52453613281251	1301.14892578125	-1280.356201171875	-107.8256912231446	1265.123657226563	-1148.494995117188	-128.4534149169922	1198.606689453125	-1193.858642578125	-363.8231811523438	1013.297668457031	-1163.74658203125	-59.89948654174806	1074.436401367188	-1202.907104492188	-73.75758361816408	1175.8701171875	-1321.343505859375	64.89249420166017	1121.044555664063	-1408.428588867188	95.30358123779298	1122.660034179688	-1368.522705078125	129.1169738769532	1095.875122070313	-1413.106811523438	180.9748840332032	1059.5703125	-1417.883666992188	160.2256469726563	1002.888977050781	-1391.765747070313	nan	nan	nan	455.4776000976564	1028.101806640625	-1369.673095703125	535.3771362304689	1026.9189453125	-1286.8251953125	-49.00000762939455	1155.048217773438	-1078.42578125	86.58922576904298	1074.020263671875	-998.0183105468752	118.1794128417969	1087.2236328125	-1032.245483398438	150.336410522461	1045.207275390625	-1003.559997558594	208.9229583740235	1023.201965332031	-1018.369750976563	184.8424682617188	964.9649047851565	-1061.263916015625	458.6087951660157	1023.386413574219	-1181.450317382813	473.6545715332032	1002.027587890625	-1109.696533203125	549.7952880859376	1026.560668945313	-1190.100463867188	-349.4635925292969	787.0515136718752	-1246.181640625	-371.9282226562501	774.0303344726565	-1028.866333007813	-485.806365966797	920.5443115234377	-1150.208984375	-512.2080078125001	902.379333496094	-1181.261352539063	-516.8662719726564	899.5428466796877	-1125.463623046875	-332.3868408203126	611.4730224609376	-1309.019653320313	-248.2296447753907	594.4635620117189	-1305.02490234375	-219.9695434570313	631.4298095703126	-1301.9013671875	-222.5865173339844	543.4385375976564	-1285.6162109375	-123.9838256835938	477.2049865722657	-1252.391479492188	-149.1923522949219	473.5527954101564	-1135.201293945313	-167.5331726074219	272.1105957031251	-1186.235961914063	-238.2256927490235	263.5249633789063	-1239.648193359375	-206.9358062744141	242.3318481445313	-1214.986938476563	-245.6116027832032	175.696762084961	-1175.630004882813	-344.7608032226563	123.6280059814453	-1201.379760742188	-318.5051269531251	137.8617706298828	-1114.831909179688	-419.2003784179689	96.78530120849612	-1157.762573242188	-207.5467529296876	54.15133285522462	-1124.879638671875	-205.5993194580079	50.45119094848634	-1170.68701171875	-255.8813171386719	38.31162643432618	-1222.072631835938	-511.2959594726564	546.9985351562501	-977.4634399414065	-500.6715087890626	480.9212036132814	-985.2412719726565	-470.4321289062501	470.8514404296876	-994.0830078125002	-556.8265991210939	420.4134216308595	-994.4595947265627	-598.5532226562501	322.4776306152344	-1003.394226074219	-623.9584960937501	332.1228027343751	-1131.636108398438	-772.390319824219	264.6593627929688	-1013.82373046875	-840.2708740234377	338.4925842285157	-969.9092407226565	-848.204528808594	294.5215148925782	-986.049011230469	-900.4418945312502	286.6412963867188	-1013.781127929688	-1010.87646484375	340.4580383300782	-971.9033203125002	-1006.181335449219	338.7859802246094	-1062.458251953125	-1050.995849609375	417.9616699218751	-1012.892456054688	-1084.318603515625	204.1185913085938	-1061.399169921875	-1081.690795898438	196.7336578369141	-1020.736328125	-1102.33154296875	231.2534637451172	-963.7716064453127	nan	nan	nan	nan	nan	nan	nan	nan	nan	
538	2.685	73.42822265625001	1348.971801757813	-1238.971923828125	-52.21796035766603	1300.6142578125	-1280.286254882813	-107.653678894043	1264.506958007813	-1148.38134765625	-128.2392272949219	1198.228759765625	-1193.755859375	-363.3630065917969	1013.276916503906	-1163.550903320313	-59.79402160644533	1073.815795898438	-1202.8515625	-73.58238220214845	1175.211303710938	-1321.301635742188	64.96622467041017	1120.683349609375	-1408.375610351563	95.48263549804689	1122.21875	-1368.567260742188	129.0963745117188	1095.31494140625	-1413.05029296875	181.0700988769532	1059.227661132813	-1417.873657226563	160.2151947021485	1002.576904296875	-1391.822265625	nan	nan	nan	455.7103576660157	1027.72802734375	-1369.878051757813	535.7016601562501	1026.61572265625	-1287.399780273438	-49.01979827880861	1154.704345703125	-1078.491821289063	86.58780670166017	1073.658325195313	-997.983825683594	118.4628372192383	1086.844848632813	-1032.234619140625	150.16748046875	1044.344970703125	-1003.573669433594	208.9720153808594	1022.369079589844	-1018.283203125	184.7275543212891	964.2800903320315	-1061.250122070313	458.9111938476564	1022.64697265625	-1181.101928710938	473.8672790527345	1001.828491210938	-1109.421997070313	550.0098876953126	1025.732421875	-1189.640502929688	-349.6577453613282	786.428161621094	-1246.070678710938	-372.4120483398438	773.591003417969	-1028.78662109375	-485.9014587402345	920.251892089844	-1150.21630859375	-512.2700195312501	902.1419067382815	-1181.363159179688	-516.7707519531251	899.2486572265627	-1125.483032226563	-332.3861389160157	611.3220825195314	-1309.065551757813	-248.2666168212891	594.3581542968751	-1305.107421875	-220.0897827148438	631.2855834960939	-1301.877685546875	-222.5547332763672	543.3519287109376	-1285.599731445313	-123.94873046875	477.2149658203126	-1252.41162109375	-149.2396545410157	473.4723510742189	-1135.246337890625	-167.5333099365235	272.1064147949219	-1186.24951171875	-238.1204071044922	263.5111694335938	-1239.705200195313	-207.0093994140626	242.3724212646485	-1215.04638671875	-245.4803161621094	175.142807006836	-1175.914306640625	-344.7358398437501	123.5787963867188	-1201.5283203125	-318.2721252441407	137.5195770263672	-1114.8125	-419.1785888671876	96.73762512207034	-1157.8212890625	-207.2473602294922	53.81824874877931	-1124.908203125	-205.613265991211	50.52158737182619	-1170.761352539063	-255.7976531982422	38.25614166259766	-1222.074096679688	-512.1069335937501	546.3345947265626	-978.1112060546877	-500.7969360351564	480.7230834960939	-985.4651489257815	-470.5345764160157	470.5474853515626	-994.327575683594	-556.9359130859376	420.0093078613282	-994.7178955078127	-598.4946289062501	322.0209960937501	-1003.79345703125	-623.9570312500001	331.7741699218751	-1131.997680664063	-773.1655273437502	262.7408447265626	-1014.6953125	-840.332946777344	338.0259094238282	-970.2793579101565	-848.1828613281252	293.7447814941407	-986.6072387695315	-900.245544433594	285.7684020996094	-1014.285034179688	-1010.894592285156	340.2229614257813	-972.252868652344	-1006.241455078125	338.0832214355469	-1062.8271484375	-1051.120971679688	417.2641601562501	-1013.376098632813	-1084.441772460938	204.939926147461	-1062.662963867188	-1081.63134765625	195.6456298828126	-1022.037353515625	-1101.680419921875	231.1851348876954	-963.910339355469	nan	nan	nan	nan	nan	nan	nan	nan	nan	
539	2.69	74.05196380615236	1348.250854492188	-1238.736938476563	-51.85283279418947	1300.022827148438	-1280.140991210938	-107.7141799926758	1263.9755859375	-1148.352172851563	-128.3389739990235	1197.814331054688	-1193.711181640625	-363.4087829589844	1012.991394042969	-1163.575439453125	-59.86342620849611	1073.329345703125	-1202.85107421875	-72.95065307617189	1174.314208984375	-1321.352416992188	65.08061981201173	1120.170776367188	-1408.39599609375	95.53322601318361	1121.699584960938	-1368.515380859375	129.4698028564453	1094.8837890625	-1413.1806640625	181.3492431640625	1058.670776367188	-1417.829833984375	160.3870391845703	1002.230895996094	-1391.740478515625	nan	nan	nan	455.9425048828126	1027.383056640625	-1370.166259765625	536.0037841796876	1026.331665039063	-1287.729125976563	-49.19393539428712	1153.925048828125	-1078.604736328125	86.37364959716798	1072.650390625	-998.0242309570315	118.4409866333008	1086.185791015625	-1032.005004882813	149.9443817138672	1043.427490234375	-1003.592224121094	208.8010406494141	1022.376098632813	-1018.512084960938	184.8081207275391	963.9476318359377	-1060.912109375	459.0671997070314	1022.009765625	-1181.06689453125	473.845428466797	1000.860046386719	-1109.279052734375	550.5380249023439	1025.057250976563	-1189.195556640625	-349.4140014648438	786.634704589844	-1246.103393554688	-372.5505065917969	773.3629150390627	-1028.881225585938	-485.9918518066407	919.941101074219	-1150.225341796875	-512.3651123046876	901.9775390625002	-1181.442504882813	-517.1811523437501	899.0632934570315	-1125.769165039063	-332.4076843261719	611.2383422851564	-1309.131958007813	-248.3016052246094	594.2956542968751	-1305.170043945313	-219.7198638916016	630.9617309570314	-1301.825561523438	-222.5960845947266	543.3415527343751	-1285.667114257813	-123.8871536254883	477.2966613769532	-1252.448364257813	-149.2474517822266	473.4407958984376	-1135.250244140625	-167.5467834472657	272.1447143554688	-1186.31201171875	-238.2521209716797	263.5754089355469	-1239.768798828125	-207.0097656250001	242.5430755615235	-1215.136474609375	-245.4249267578126	175.457504272461	-1175.886474609375	-344.7932128906251	123.6450271606446	-1201.6416015625	-318.4387817382813	137.9618225097657	-1115.001953125	-419.1925048828126	96.68799591064456	-1157.834716796875	-207.5342712402344	54.13822555541994	-1124.935180664063	-205.6125793457032	50.47152328491212	-1170.806640625	-255.8904876708985	38.25865936279298	-1222.122802734375	-512.1912841796876	545.5674438476564	-978.272644042969	-500.9913635253907	480.454071044922	-985.5932617187502	-470.6554565429689	470.0802612304689	-994.4358520507815	-557.1477050781251	419.8652648925782	-995.0693359375002	-598.5046386718751	321.7019042968751	-1003.97119140625	-622.8240966796876	330.5441589355469	-1132.177490234375	-773.2669677734377	262.1690368652344	-1015.174621582031	-840.3029785156252	337.2372131347657	-970.4683837890627	-848.4149169921877	293.1900329589844	-986.9802856445315	-900.359069824219	285.1497802734376	-1014.723937988281	-1010.231506347656	339.9116516113282	-972.4141235351565	-1006.113891601563	337.4076232910157	-1063.161254882813	-1051.203491210938	416.6312866210939	-1013.788940429688	-1084.300537109375	204.4461059570313	-1063.127807617188	-1081.577514648438	195.6098022460938	-1021.683166503906	-1101.536987304688	230.1847534179688	-964.3272094726565	nan	nan	nan	nan	nan	nan	nan	nan	nan	
540	2.695	74.21760559082033	1347.768188476563	-1238.62451171875	-51.49958801269533	1299.408447265625	-1280.057495117188	-107.3496398925782	1263.661010742188	-1148.341674804688	-128.2727661132813	1197.475341796875	-1193.716918945313	-363.6670227050782	1012.321716308594	-1163.718994140625	-59.94793701171876	1072.847412109375	-1202.756958007813	-72.78730773925783	1173.808715820313	-1321.475463867188	65.08350372314455	1119.670776367188	-1408.3720703125	95.52404785156251	1121.250122070313	-1368.458374023438	129.6103973388672	1094.413940429688	-1413.182495117188	181.659652709961	1058.238525390625	-1417.939575195313	160.6259918212891	1001.792114257813	-1391.70947265625	nan	nan	nan	455.4063415527345	1027.308349609375	-1370.311767578125	536.2895507812501	1026.116943359375	-1288.004638671875	-48.99581527709962	1153.5830078125	-1078.576904296875	86.2373733520508	1071.712280273438	-997.9627075195315	118.1036148071289	1085.59765625	-1031.880249023438	149.9404602050782	1042.986083984375	-1003.580078125	208.6875152587891	1021.390563964844	-1018.4130859375	184.7194366455078	963.3786621093752	-1060.798461914063	458.8833007812501	1021.147583007813	-1180.367919921875	473.9033813476564	1000.065185546875	-1108.720703125	550.6384887695314	1024.156616210938	-1188.7763671875	-349.7019042968751	786.2002563476565	-1246.264282226563	-372.7329101562501	773.1931762695315	-1029.057250976563	-486.1876831054689	919.7210693359377	-1150.370483398438	-512.4168090820314	901.761169433594	-1181.555541992188	-517.1334228515626	898.8618164062502	-1125.73095703125	-332.4233093261719	611.1641235351564	-1309.24267578125	-248.1985473632813	594.2949829101564	-1305.375	-220.147933959961	631.3212280273439	-1301.927490234375	-222.419906616211	543.3629760742189	-1285.75244140625	-124.0048294067383	477.4862670898439	-1252.462890625	-149.309066772461	473.4137268066407	-1135.240966796875	-167.5420074462891	272.1474304199219	-1186.394653320313	-238.3421630859376	263.6498718261719	-1239.910888671875	-206.9096984863282	242.365463256836	-1215.213989257813	-245.5111846923829	175.241943359375	-1176.203491210938	-344.8564758300782	123.6582794189453	-1201.768310546875	-318.4222106933594	138.0485534667969	-1115.116333007813	-419.4607543945314	97.03302001953128	-1157.912109375	-207.6096801757813	54.15844345092775	-1124.9619140625	-205.6199188232422	50.39949035644533	-1170.81298828125	-255.8652038574219	38.23077011108399	-1222.159790039063	-512.3850097656251	545.3263549804689	-978.5112304687502	-501.0285644531251	480.0943603515626	-985.731628417969	-470.8136291503907	469.6866760253907	-994.663024902344	-556.8040771484376	419.5695190429689	-995.1627197265627	-598.4270629882814	321.2164001464844	-1004.292846679688	-622.7781372070314	330.1537475585938	-1132.5390625	-772.4687500000002	262.1393737792969	-1015.239685058594	-840.221862792969	336.6601867675782	-970.7913818359377	-848.462341308594	292.9048767089844	-987.1778564453127	-900.350280761719	284.2882080078126	-1015.313903808594	-1010.042907714844	339.1672058105469	-972.9848632812502	-1006.055847167969	336.6965637207032	-1063.540283203125	-1051.312744140625	415.8931274414064	-1014.305419921875	-1083.7431640625	201.7722473144532	-1062.77734375	-1081.439331054688	194.8247833251954	-1022.4873046875	-1101.5791015625	229.2349090576172	-964.9954833984377	nan	nan	nan	nan	nan	nan	nan	nan	nan	
